<svg xmlns="http://www.w3.org/2000/svg" viewBox="0 0 1600 900"><defs><linearGradient id="bg" x1="0" y1="0" x2="1" y2="1"><stop stop-color="#10091f"/><stop offset=".55" stop-color="#4c1d95"/><stop offset="1" stop-color="#020617"/></linearGradient><radialGradient id="g" cx="68%" cy="28%" r="58%"><stop stop-color="#c084fc" stop-opacity=".68"/><stop offset="1" stop-color="#c084fc" stop-opacity="0"/></radialGradient></defs><rect width="1600" height="900" fill="url(#bg)"/><rect width="1600" height="900" fill="url(#g)"/>
<g transform="translate(190 135)"><rect width="475" height="620" rx="42" fill="#faf5ff" opacity=".96"/><rect x="46" y="48" width="170" height="30" rx="15" fill="#7e22ce"/><rect x="46" y="120" width="190" height="330" rx="34" fill="#ddd6fe"/><rect x="285" y="118" width="122" height="330" rx="28" fill="#c4b5fd"/><rect x="70" y="480" width="318" height="20" rx="10" fill="#312e81" opacity=".82"/><rect x="70" y="522" width="260" height="15" rx="8" fill="#6b7280"/><rect x="70" y="555" width="210" height="15" rx="8" fill="#9ca3af"/></g>
<g transform="translate(860 190)"><rect width="500" height="455" rx="46" fill="#020617" opacity=".72"/><path d="M70 340 L190 226 L276 286 L410 132" stroke="#f0abfc" stroke-width="16" fill="none" stroke-linecap="round" stroke-linejoin="round"/><circle cx="190" cy="226" r="22" fill="#f0abfc"/><circle cx="276" cy="286" r="22" fill="#c084fc"/><circle cx="410" cy="132" r="26" fill="#38bdf8"/><rect x="52" y="50" width="255" height="24" rx="12" fill="#fff" opacity=".9"/><rect x="52" y="94" width="156" height="16" rx="8" fill="#c4b5fd"/></g>
<g opacity=".22" stroke="#e9d5ff" stroke-width="2"><circle cx="800" cy="450" r="360" fill="none"/><circle cx="800" cy="450" r="250" fill="none"/><circle cx="800" cy="450" r="140" fill="none"/></g>
<text x="120" y="790" fill="#fff" font-family="Inter,Arial,sans-serif" font-size="58" font-weight="800">Product baseline</text><text x="120" y="842" fill="#e9d5ff" font-family="Inter,Arial,sans-serif" font-size="30">Official truth stays separate from marketplace claims</text></svg>
